<?xml version="1.0" encoding="UTF-8" standalone="no"?>
<!-- Created with Inkscape (http://www.inkscape.org/) -->

<svg
   width="8000"
   height="5000"
   viewBox="0 0 8000 5000"
   version="1.1"
   id="svg1"
   xml:space="preserve"
   sodipodi:docname="Map2.1.svg"
   inkscape:version="1.4.2 (f4327f4, 2025-05-13)"
   xmlns:inkscape="http://www.inkscape.org/namespaces/inkscape"
   xmlns:sodipodi="http://sodipodi.sourceforge.net/DTD/sodipodi-0.dtd"
   xmlns="http://www.w3.org/2000/svg"
   xmlns:svg="http://www.w3.org/2000/svg"><sodipodi:namedview
     id="namedview1"
     pagecolor="#ffffff"
     bordercolor="#000000"
     borderopacity="0.25"
     inkscape:showpageshadow="2"
     inkscape:pageopacity="0.0"
     inkscape:pagecheckerboard="0"
     inkscape:deskcolor="#d1d1d1"
     inkscape:zoom="0.17154411"
     inkscape:cx="3943.5921"
     inkscape:cy="1984.9122"
     inkscape:window-width="2560"
     inkscape:window-height="1494"
     inkscape:window-x="-11"
     inkscape:window-y="-11"
     inkscape:window-maximized="1"
     inkscape:current-layer="svg1" /><defs
     id="defs1" /><g
     id="layer2"
     inkscape:label="Platform"><rect
       style="opacity:1;fill:#000000"
       id="rect6"
       width="50"
       height="350"
       x="0"
       y="3100" /><rect
       style="opacity:1;fill:#000000"
       id="rect7"
       width="3100"
       height="50"
       x="0"
       y="3050" /><rect
       style="opacity:1;fill:#000000"
       id="rect8"
       width="400"
       height="50"
       x="50"
       y="3400" /><rect
       style="opacity:1;fill:#000000"
       id="rect9"
       width="50"
       height="250"
       x="450"
       y="3400" /><rect
       style="opacity:1;fill:#000000"
       id="rect10"
       width="800"
       height="50"
       x="500"
       y="3600" /><rect
       style="opacity:1;fill:#000000"
       id="rect11"
       width="50"
       height="200"
       x="1250"
       y="3400" /><rect
       style="opacity:1;fill:#000000"
       id="rect12"
       width="800"
       height="50"
       x="1300"
       y="3400" /><rect
       style="opacity:1;fill:#000000"
       id="rect13"
       width="1400"
       height="50"
       x="2300"
       y="3400" /><rect
       style="opacity:1;fill:#000000"
       id="rect14"
       width="50"
       height="300"
       x="3650"
       y="3100" /><rect
       style="opacity:1;fill:#000000"
       id="rect15"
       width="350"
       height="50"
       x="3350"
       y="3050" /><rect
       style="opacity:1;fill:#000000"
       id="rect16"
       width="50"
       height="100"
       x="3050"
       y="2950" /><rect
       style="opacity:1;fill:#000000"
       id="rect17"
       width="50"
       height="100"
       x="3350"
       y="2950" /><rect
       style="opacity:1;fill:#000000"
       id="rect18"
       width="150"
       height="50"
       x="2900"
       y="2950" /><rect
       style="opacity:1;fill:#000000"
       id="rect19"
       width="50"
       height="450"
       x="2900"
       y="2500" /><rect
       style="opacity:1;fill:#000000"
       id="rect20"
       width="100"
       height="50"
       x="2900"
       y="2450" /><rect
       style="opacity:1;fill:#000000"
       id="rect21"
       width="50"
       height="150"
       x="2950"
       y="2300" /><rect
       style="opacity:1;fill:#000000"
       id="rect22"
       width="350"
       height="50"
       x="2950"
       y="2250" /><rect
       style="opacity:1;fill:#000000"
       id="rect23"
       width="50"
       height="200"
       x="3250"
       y="2300" /><rect
       style="opacity:1;fill:#000000"
       id="rect24"
       width="250"
       height="50"
       x="3250"
       y="2500" /><rect
       style="opacity:1;fill:#000000"
       id="rect25"
       width="50"
       height="200"
       x="3450"
       y="2550" /><rect
       style="opacity:1;fill:#000000"
       id="rect26"
       width="651.37183"
       height="50"
       x="3198.6282"
       y="2750" /><rect
       style="opacity:1;fill:#000000"
       id="rect27"
       width="50"
       height="450"
       x="3550"
       y="2300" /><rect
       style="opacity:1;fill:#000000"
       id="rect28"
       width="1200"
       height="50"
       x="3600"
       y="2300" /><rect
       style="opacity:1;fill:#000000"
       id="rect29"
       width="50"
       height="100"
       x="4750"
       y="2350" /><rect
       style="opacity:1;fill:#000000"
       id="rect30"
       width="250"
       height="50"
       x="4800"
       y="2400" /><rect
       style="opacity:1;fill:#000000"
       id="rect31"
       width="50"
       height="150"
       x="5000"
       y="2250" /><rect
       style="opacity:1;fill:#000000"
       id="rect32"
       width="200"
       height="50"
       x="4800"
       y="2250" /><rect
       style="opacity:1;fill:#000000"
       id="rect33"
       width="50"
       height="250"
       x="4800"
       y="2000" /><rect
       style="opacity:1;fill:#000000"
       id="rect34"
       width="150"
       height="49.826313"
       x="4800"
       y="1950.1737" /><rect
       style="opacity:1;fill:#000000"
       id="rect35"
       width="50"
       height="200"
       x="4900"
       y="1750" /><rect
       style="opacity:1;fill:#000000"
       id="rect36"
       width="1050"
       height="50"
       x="4900"
       y="1700" /><rect
       style="opacity:1;fill:#000000"
       id="rect37"
       width="50"
       height="500"
       x="5900"
       y="1750" /><rect
       style="opacity:1;fill:#000000"
       id="rect38"
       width="50"
       height="550"
       x="6000"
       y="1700" /><rect
       style="opacity:1;fill:#000000"
       id="rect39"
       width="50"
       height="50"
       x="5950"
       y="2200" /><rect
       style="opacity:1;fill:#000000"
       id="rect40"
       width="650"
       height="50"
       x="6050"
       y="1700" /><rect
       style="opacity:1;fill:#000000"
       id="rect41"
       width="50"
       height="650"
       x="6650"
       y="1050" /><rect
       style="opacity:1;fill:#000000"
       id="rect42"
       width="200"
       height="50"
       x="6450"
       y="1050" /><rect
       style="opacity:1;fill:#000000"
       id="rect43"
       width="50"
       height="450"
       x="6450"
       y="600" /><rect
       style="opacity:1;fill:#000000"
       id="rect44"
       width="50"
       height="600"
       x="5500"
       y="50" /><rect
       style="opacity:1;fill:#000000"
       id="rect45"
       width="900"
       height="50"
       x="5550"
       y="600" /><rect
       style="opacity:1;fill:#000000"
       id="rect46"
       width="550"
       height="50"
       x="5500"
       y="0" /><rect
       style="opacity:1;fill:#000000"
       id="rect47"
       width="50"
       height="300"
       x="6000"
       y="50" /><rect
       style="opacity:1;fill:#000000"
       id="rect48"
       width="600"
       height="50"
       x="6050"
       y="299.79227" /><rect
       style="opacity:1;fill:#000000"
       id="rect49"
       width="50"
       height="250"
       x="6600"
       y="50" /><rect
       style="opacity:1;fill:#000000"
       id="rect50"
       width="900"
       height="50"
       x="6650"
       y="50" /><rect
       style="opacity:1;fill:#000000"
       id="rect51"
       width="50"
       height="300"
       x="7500"
       y="100" /><rect
       style="opacity:1;fill:#000000"
       id="rect52"
       width="150"
       height="50"
       x="6850"
       y="300" /><rect
       style="opacity:1;fill:#000000"
       id="rect53"
       width="550"
       height="50"
       x="6950"
       y="350" /><rect
       style="opacity:1;fill:#000000"
       id="rect54"
       width="51.716606"
       height="250"
       x="6850"
       y="350" /><rect
       style="opacity:1;fill:#000000"
       id="rect55"
       width="250"
       height="50"
       x="6650"
       y="600" /><rect
       style="opacity:1;fill:#000000"
       id="rect56"
       width="50"
       height="150"
       x="6650"
       y="650" /><rect
       style="opacity:1;fill:#000000"
       id="rect57"
       width="300"
       height="50"
       x="6700"
       y="750" /><rect
       style="opacity:1;fill:#000000"
       id="rect58"
       width="50"
       height="1450"
       x="6950"
       y="800" /><rect
       style="opacity:1;fill:#000000"
       id="rect59"
       width="300"
       height="50"
       x="6650"
       y="2200" /><rect
       style="opacity:1;fill:#000000"
       id="rect60"
       width="50"
       height="150"
       x="6650"
       y="2250" /><rect
       style="opacity:1;fill:#000000"
       id="rect61"
       width="900"
       height="50"
       x="5800"
       y="2400" /><rect
       style="opacity:1;fill:#000000"
       id="rect62"
       width="50"
       height="200"
       x="5750"
       y="2250" /><rect
       style="opacity:1;fill:#000000"
       id="rect63"
       width="451.9386"
       height="50"
       x="5298.0615"
       y="2250" /><rect
       style="opacity:1;fill:#000000"
       id="rect64"
       width="600"
       height="50"
       x="3400"
       y="2950" /><rect
       style="opacity:1;fill:#000000"
       id="rect65"
       width="50"
       height="100"
       x="3950"
       y="2850" /><rect
       style="opacity:1;fill:#000000"
       id="rect66"
       width="800"
       height="50"
       x="4000"
       y="2850" /><rect
       style="opacity:1;fill:#000000"
       id="rect67"
       width="50"
       height="150.2869"
       x="4750"
       y="2699.7131" /><rect
       style="opacity:1;fill:#000000"
       id="rect68"
       width="200"
       height="50"
       x="4800"
       y="2700" /><rect
       style="opacity:1;fill:#000000"
       id="rect69"
       width="50"
       height="850"
       x="5250"
       y="2250" /><rect
       style="opacity:1;fill:#000000"
       id="rect70"
       width="50"
       height="150"
       x="4950"
       y="2750" /><rect
       style="opacity:1;fill:#000000"
       id="rect71"
       width="50"
       height="900"
       x="4900"
       y="2850" /><rect
       style="opacity:1;fill:#000000"
       id="rect72"
       width="150"
       height="50"
       x="5100"
       y="3050" /><rect
       style="opacity:1;fill:#000000"
       id="rect73"
       width="50"
       height="100"
       x="5100"
       y="3100" /><rect
       style="opacity:1;fill:#000000"
       id="rect74"
       width="550"
       height="50"
       x="5100"
       y="3200" /><rect
       style="opacity:1;fill:#000000"
       id="rect75"
       width="50"
       height="550"
       x="5600"
       y="2650" /><rect
       style="opacity:1;fill:#000000"
       id="rect76"
       width="800"
       height="50"
       x="5650"
       y="2650" /><rect
       style="opacity:1;fill:#000000"
       id="rect77"
       width="50"
       height="200"
       x="6400"
       y="2450" /><rect
       style="opacity:1;fill:#000000"
       id="rect78"
       width="900"
       height="50"
       x="6700"
       y="2400" /><rect
       style="opacity:1;fill:#000000"
       id="rect79"
       width="50"
       height="50"
       x="7550"
       y="2450" /><rect
       style="opacity:1;fill:#000000"
       id="rect80"
       width="100"
       height="50"
       x="7600"
       y="2450" /><rect
       style="opacity:1;fill:#000000"
       id="rect81"
       width="50"
       height="250"
       x="7650"
       y="2500" /><rect
       style="opacity:1;fill:#000000"
       id="rect82"
       width="50"
       height="300"
       x="7600"
       y="2700" /><rect
       style="opacity:1;fill:#000000"
       id="rect83"
       width="50"
       height="300"
       x="7650"
       y="2950" /><rect
       style="opacity:1;fill:#000000"
       id="rect84"
       width="50"
       height="700"
       x="7700"
       y="3200" /><rect
       style="opacity:1;fill:#000000"
       id="rect85"
       width="200"
       height="50"
       x="7750"
       y="3850" /><rect
       style="opacity:1;fill:#000000"
       id="rect86"
       width="50"
       height="250"
       x="7900"
       y="3900" /><rect
       style="opacity:1;fill:#000000"
       id="rect87"
       width="450"
       height="50"
       x="7450"
       y="4100" /><rect
       style="opacity:1;fill:#000000"
       id="rect88"
       width="50"
       height="300"
       x="6800"
       y="3000" /><rect
       style="opacity:1;fill:#000000"
       id="rect89"
       width="500"
       height="50"
       x="6850"
       y="3250" /><rect
       style="opacity:1;fill:#000000"
       id="rect90"
       width="50"
       height="600"
       x="7300"
       y="3300" /><rect
       style="opacity:1;fill:#000000"
       id="rect91"
       width="150"
       height="50"
       x="7350"
       y="3850" /><rect
       style="opacity:1;fill:#000000"
       id="rect92"
       width="50"
       height="200"
       x="7450"
       y="3900" /><rect
       style="opacity:1;fill:#000000"
       id="rect93"
       width="300"
       height="50"
       x="6850"
       y="3000" /><rect
       style="opacity:1;fill:#000000"
       id="rect94"
       width="50"
       height="100"
       x="7100"
       y="2900" /><rect
       style="opacity:1;fill:#000000"
       id="rect95"
       width="400"
       height="50"
       x="6700"
       y="2900" /><rect
       style="opacity:1;fill:#000000"
       id="rect96"
       width="50"
       height="200"
       x="6700"
       y="2700" /><rect
       style="opacity:1;fill:#000000"
       id="rect97"
       width="100"
       height="50"
       x="6600"
       y="2700" /><rect
       style="opacity:1;fill:#000000"
       id="rect98"
       width="50"
       height="250"
       x="6600"
       y="2750" /><rect
       style="opacity:1;fill:#000000"
       id="rect99"
       width="700"
       height="50"
       x="5900"
       y="2950" /><rect
       style="opacity:1;fill:#000000"
       id="rect100"
       width="50"
       height="250"
       x="5900"
       y="3000" /><rect
       style="opacity:1;fill:#000000"
       id="rect101"
       width="50"
       height="350"
       x="5850"
       y="3200" /><rect
       style="opacity:1;fill:#000000"
       id="rect102"
       width="750"
       height="50"
       x="5100"
       y="3500" /><rect
       style="opacity:1;fill:#000000"
       id="rect103"
       width="50"
       height="499.8786"
       x="5100"
       y="3550" /><rect
       style="opacity:1;fill:#000000"
       id="rect104"
       width="700"
       height="50"
       x="4400"
       y="4000" /><rect
       style="opacity:1;fill:#000000"
       id="rect105"
       width="50"
       height="450"
       x="4350"
       y="3600" /><rect
       style="opacity:1;fill:#000000"
       id="rect106"
       width="250"
       height="50"
       x="4350"
       y="3550" /><rect
       style="opacity:1;fill:#000000"
       id="rect107"
       width="50"
       height="225"
       x="4550"
       y="3350" /><rect
       style="opacity:1;fill:#000000"
       id="rect108"
       width="50"
       height="350"
       x="4350"
       y="3050" /><rect
       style="opacity:1;fill:#000000"
       id="rect109"
       width="150"
       height="50"
       x="4400"
       y="3350" /><rect
       style="opacity:1;fill:#000000"
       id="rect110"
       width="300"
       height="50"
       x="4400"
       y="3050" /><rect
       style="opacity:1;fill:#000000"
       id="rect111"
       width="50"
       height="100"
       x="4650"
       y="3100" /><rect
       style="opacity:1;fill:#000000"
       id="rect112"
       width="50"
       height="100"
       x="4700"
       y="3150" /><rect
       style="opacity:1;fill:#000000"
       id="rect113"
       width="150"
       height="50"
       x="4750"
       y="3200" /><rect
       style="opacity:1;fill:#000000"
       id="rect114"
       width="50"
       height="500"
       x="2300"
       y="3450" /><rect
       style="opacity:1;fill:#000000"
       id="rect115"
       width="50"
       height="350"
       x="1350"
       y="3450" /><rect
       style="opacity:1;fill:#000000"
       id="rect116"
       width="350"
       height="50"
       x="1000"
       y="3750" /><rect
       style="opacity:1;fill:#000000"
       id="rect117"
       width="500"
       height="50"
       x="550"
       y="3700" /><rect
       style="opacity:1;fill:#000000"
       id="rect118"
       width="50"
       height="300"
       x="550"
       y="3750" /><rect
       style="opacity:1;fill:#000000"
       id="rect119"
       width="500"
       height="50"
       x="600"
       y="4000" /><rect
       style="opacity:1;fill:#000000"
       id="rect120"
       width="50"
       height="650"
       x="1050"
       y="4050" /><rect
       style="opacity:1;fill:#000000"
       id="rect121"
       width="100"
       height="50"
       x="2200"
       y="3900" /><rect
       style="opacity:1;fill:#000000"
       id="rect122"
       width="950"
       height="50"
       x="1300"
       y="4000" /><rect
       style="opacity:1;fill:#000000"
       id="rect123"
       width="50"
       height="50"
       x="2200"
       y="3950" /><rect
       style="opacity:1;fill:#000000"
       id="rect124"
       width="50"
       height="350"
       x="1300"
       y="4050" /><rect
       style="opacity:1;fill:#000000"
       id="rect125"
       width="750"
       height="50"
       x="1100"
       y="4650" /><rect
       style="opacity:1;fill:#000000"
       id="rect126"
       width="50"
       height="150"
       x="1800"
       y="4700" /><rect
       style="opacity:1;fill:#000000"
       id="rect127"
       width="550"
       height="50"
       x="1850"
       y="4800" /><rect
       style="opacity:1;fill:#000000"
       id="rect128"
       width="50"
       height="150"
       x="2350"
       y="4650" /><rect
       style="opacity:1;fill:#000000"
       id="rect129"
       width="50"
       height="300"
       x="4250"
       y="4650" /><rect
       style="opacity:1;fill:#000000"
       id="rect130"
       width="1650"
       height="50"
       x="2600"
       y="4900" /><rect
       style="opacity:1;fill:#000000"
       id="rect131"
       width="50"
       height="250"
       x="2600"
       y="4650" /><rect
       style="opacity:1;fill:#000000"
       id="rect132"
       width="200"
       height="50.43858"
       x="2400"
       y="4650" /><rect
       style="opacity:1;fill:#000000"
       id="rect133"
       width="1250"
       height="50"
       x="3050"
       y="4600" /><rect
       style="opacity:1;fill:#000000"
       id="rect134"
       width="50"
       height="400"
       x="3050"
       y="4200" /><rect
       style="opacity:1;fill:#000000"
       id="rect135"
       width="1200"
       height="50"
       x="1350"
       y="4350" /><rect
       style="opacity:1;fill:#000000"
       id="rect136"
       width="50"
       height="150"
       x="2500"
       y="4200" /><rect
       style="opacity:1;fill:#000000"
       id="rect137"
       width="50"
       height="50"
       x="2550"
       y="4200" /><rect
       style="opacity:1;fill:#000000"
       id="rect138"
       width="50"
       height="50"
       x="3000"
       y="4200" /><rect
       style="opacity:1;fill:#000000"
       id="rect139"
       width="500"
       height="50"
       x="2550"
       y="4150" /><rect
       style="opacity:1;fill:#000000"
       id="rect140"
       width="50"
       height="99.310799"
       x="6400"
       y="1851.4424" /><rect
       style="opacity:1;fill:#000000"
       id="rect141"
       width="250"
       height="50.11047"
       x="6200"
       y="1949.9448" /><rect
       style="opacity:1;fill:#000000"
       id="rect142"
       width="302.36975"
       height="50"
       x="6200"
       y="2200" /><rect
       style="opacity:1;fill:#000000"
       id="rect143"
       width="0.22384913"
       height="2.2384913"
       x="6327.3198"
       y="2023.3723" /><rect
       style="opacity:1;fill:#000000"
       id="rect144"
       width="600"
       height="50"
       x="4050"
       y="2550" /><rect
       style="opacity:1;fill:#000000"
       id="rect145"
       width="450"
       height="50"
       x="650"
       y="3300" /><rect
       style="opacity:1;fill:#000000"
       id="rect146"
       width="50.0709"
       height="100"
       x="1549.9291"
       y="3750" /><rect
       style="opacity:1;fill:#000000"
       id="rect147"
       width="350"
       height="50"
       x="1600"
       y="3750" /><rect
       style="opacity:1;fill:#000000"
       id="rect148"
       width="50"
       height="150"
       x="1900"
       y="3600" /><rect
       style="opacity:1;fill:#000000"
       id="rect149"
       width="100"
       height="50"
       x="1950"
       y="3600" /><rect
       style="opacity:1;fill:#000000"
       id="rect150"
       width="250.37939"
       height="50"
       x="2699.6206"
       y="4400" /><rect
       style="opacity:1;fill:#000000"
       id="rect151"
       width="300"
       height="50"
       x="5300"
       y="2000" /><rect
       style="opacity:1;fill:#000000"
       id="rect152"
       width="300"
       height="50"
       x="5700"
       y="300" /></g><g
     id="layer3"
     inkscape:label="Zipline"><rect
       style="opacity:1;fill:#ffff00"
       id="rect153"
       width="50"
       height="1550"
       x="5000"
       y="2450" /><rect
       style="opacity:1;fill:#ffff00"
       id="rect154"
       width="50"
       height="1400"
       x="7350"
       y="2450" /><rect
       style="opacity:1;fill:#ffff00"
       id="rect155"
       width="50"
       height="1400"
       x="6700"
       y="800" /></g><g
     id="layer4"
     style="fill:#404040"
     inkscape:label="TwoWayPlatform"><rect
       style="opacity:1;fill:#bfbfbf"
       id="rect156"
       width="150"
       height="50"
       x="3050"
       y="2750" /><rect
       style="opacity:1;fill:#bfbfbf"
       id="rect157"
       width="300"
       height="50"
       x="2950"
       y="2500" /><rect
       style="opacity:1;fill:#bfbfbf"
       id="rect158"
       width="250"
       height="50"
       x="3600"
       y="2550" /><rect
       style="opacity:1;fill:#bfbfbf"
       id="rect159"
       width="250"
       height="50"
       x="2050"
       y="3600" /><rect
       style="opacity:1;fill:#bfbfbf"
       id="rect160"
       width="200"
       height="50"
       x="1100"
       y="4000" /><rect
       style="opacity:1;fill:#bfbfbf"
       id="rect161"
       width="200"
       height="50"
       x="1100"
       y="4350" /><rect
       style="opacity:1;fill:#bfbfbf"
       id="rect162"
       width="250"
       height="50.43858"
       x="2850"
       y="4650" /><rect
       style="opacity:1;fill:#bfbfbf"
       id="rect163"
       width="300"
       height="50"
       x="4400"
       y="3800" /><rect
       style="opacity:1;fill:#bfbfbf"
       id="rect164"
       width="300"
       height="50"
       x="4600"
       y="3550" /><rect
       style="opacity:1;fill:#bfbfbf"
       id="rect165"
       width="200"
       height="50"
       x="5650"
       y="3200" /><rect
       style="opacity:1;fill:#bfbfbf"
       id="rect166"
       width="250"
       height="50"
       x="7450"
       y="3500" /><rect
       style="opacity:1;fill:#bfbfbf"
       id="rect167"
       width="398.19785"
       height="50"
       x="6850"
       y="2650" /><rect
       style="opacity:1;fill:#bfbfbf"
       id="rect168"
       width="200"
       height="50"
       x="7450"
       y="3000" /><rect
       style="opacity:1;fill:#bfbfbf"
       id="rect169"
       width="150"
       height="50"
       x="6800"
       y="1050" /><rect
       style="opacity:1;fill:#bfbfbf"
       id="rect170"
       width="150"
       height="50"
       x="6800"
       y="1299.2205" /><rect
       style="opacity:1;fill:#bfbfbf"
       id="rect171"
       width="150"
       height="50"
       x="6800"
       y="1950" /><rect
       style="opacity:1;fill:#bfbfbf"
       id="rect172"
       width="100"
       height="50"
       x="6850"
       y="1648.067" /><rect
       style="opacity:1;fill:#bfbfbf"
       id="rect173"
       width="200"
       height="50"
       x="6500"
       y="800" /><rect
       style="opacity:1;fill:#bfbfbf"
       id="rect174"
       width="200"
       height="50"
       x="6650"
       y="300" /><rect
       style="opacity:1;fill:#bfbfbf;fill-opacity:1"
       id="rect207"
       width="350"
       height="50"
       x="3050"
       y="3100" /><rect
       style="opacity:1;fill:#bfbfbf;fill-opacity:1"
       id="rect215"
       width="150"
       height="50"
       x="5100"
       y="2700" /><rect
       style="opacity:1;fill:#bfbfbf;fill-opacity:1"
       id="rect216"
       width="150"
       height="50"
       x="5100"
       y="2450" /></g><g
     id="layer5"
     inkscape:label="Player"><rect
       style="opacity:1;fill:#00cc00"
       id="rect175"
       width="50"
       height="100"
       x="150"
       y="3300" /></g><g
     id="layer6"
     inkscape:label="Backdoor"><rect
       style="opacity:1;fill:#00ffff"
       id="rect176"
       width="50"
       height="100"
       x="3900"
       y="4800" /><rect
       style="opacity:1;fill:#00ffff"
       id="rect177"
       width="50"
       height="100"
       x="3450"
       y="3300" /><rect
       style="opacity:1;fill:#00ffff"
       id="rect178"
       width="50"
       height="100"
       x="7550"
       y="3400" /><rect
       style="opacity:1;fill:#00ffff"
       id="rect179"
       width="50"
       height="100"
       x="4850"
       y="2600" /><rect
       style="opacity:1;fill:#00ffff"
       id="rect180"
       width="50"
       height="100.87965"
       x="6550"
       y="949.12036" /></g><g
     id="layer7"
     inkscape:label="Portal"><rect
       style="opacity:1;fill:#000080"
       id="rect181"
       width="51.347881"
       height="100"
       x="7350"
       y="250" /></g><g
     id="layer8"
     inkscape:label="MeleeStoryEnemy"><rect
       style="opacity:1;fill:#fd00ff;fill-opacity:1"
       id="rect182"
       width="49.267612"
       height="100"
       x="4100"
       y="4800" /><rect
       style="opacity:1;fill:#fd00ff;fill-opacity:1"
       id="rect183"
       width="50"
       height="100"
       x="7550"
       y="4000" /><rect
       style="opacity:1;fill:#fd00ff;fill-opacity:1"
       id="rect184"
       width="52.596264"
       height="100"
       x="5900"
       y="200" /></g><g
     id="layer9"
     inkscape:label="MeleeEnemy"><rect
       style="opacity:1;fill:#ff0000;fill-opacity:1"
       id="rect185"
       width="49.638935"
       height="100"
       x="700"
       y="3200" /><rect
       style="opacity:1;fill:#ff0000;fill-opacity:1"
       id="rect186"
       width="50"
       height="100"
       x="850"
       y="3500" /><rect
       style="opacity:1;fill:#ff0000;fill-opacity:1"
       id="rect187"
       width="51.267929"
       height="100"
       x="1700"
       y="3300" /><rect
       style="opacity:1;fill:#ff0000;fill-opacity:1"
       id="rect188"
       width="50"
       height="100"
       x="1700"
       y="3650" /><rect
       style="opacity:1;fill:#ff0000;fill-opacity:1"
       id="rect189"
       width="50"
       height="100"
       x="1450"
       y="4550" /><rect
       style="opacity:1;fill:#ff0000;fill-opacity:1"
       id="rect190"
       width="49.785652"
       height="102.23908"
       x="2850"
       y="4297.7607" /><rect
       style="opacity:1;fill:#ff0000;fill-opacity:1"
       id="rect191"
       width="50"
       height="100"
       x="3700"
       y="2450" /><rect
       style="opacity:1;fill:#ff0000;fill-opacity:1"
       id="rect192"
       width="49.633968"
       height="100"
       x="4500.3662"
       y="3250" /><rect
       style="opacity:1;fill:#ff0000;fill-opacity:1"
       id="rect193"
       width="51.316402"
       height="100"
       x="5450"
       y="1900" /><rect
       style="opacity:1;fill:#ff0000;fill-opacity:1"
       id="rect194"
       width="50"
       height="100"
       x="6200"
       y="2850" /><rect
       style="opacity:1;fill:#ff0000;fill-opacity:1"
       id="rect195"
       width="50.901077"
       height="100"
       x="7049.0991"
       y="2550" /><rect
       style="opacity:1;fill:#ff0000;fill-opacity:1"
       id="rect196"
       width="50"
       height="100"
       x="7000"
       y="3150" /><rect
       style="opacity:1;fill:#ff0000;fill-opacity:1"
       id="rect198"
       width="50"
       height="100"
       x="5950"
       y="500" /></g><g
     id="layer10"
     inkscape:label="RangedEnemy"><rect
       style="opacity:1;fill:#ff6600;fill-opacity:1"
       id="rect199"
       width="50"
       height="100"
       x="1100"
       y="3500" /><rect
       style="opacity:1;fill:#ff6600;fill-opacity:1"
       id="rect200"
       width="50"
       height="100"
       x="1950"
       y="3300" /><rect
       style="opacity:1;fill:#ff6600;fill-opacity:1"
       id="rect201"
       width="50"
       height="100"
       x="3250"
       y="3300" /><rect
       style="opacity:1;fill:#ff6600;fill-opacity:1"
       id="rect202"
       width="50"
       height="100"
       x="1900"
       y="3900" /><rect
       style="opacity:1;fill:#ff6600;fill-opacity:1"
       id="rect203"
       width="50"
       height="100"
       x="950"
       y="3900" /><rect
       style="opacity:1;fill:#ff6600;fill-opacity:1"
       id="rect204"
       width="50"
       height="100"
       x="2050"
       y="4700" /><rect
       style="opacity:1;fill:#ff6600;fill-opacity:1"
       id="rect205"
       width="50"
       height="100"
       x="2950"
       y="4550" /><rect
       style="opacity:1;fill:#ff6600;fill-opacity:1"
       id="rect206"
       width="54.798447"
       height="100"
       x="3345.2017"
       y="4800" /><rect
       style="opacity:1;fill:#ff6600;fill-opacity:1"
       id="rect208"
       width="49.994938"
       height="100"
       x="3150.0051"
       y="2400" /><rect
       style="opacity:1;fill:#ff6600;fill-opacity:1"
       id="rect209"
       width="50"
       height="100"
       x="4350"
       y="2450" /><rect
       style="opacity:1;fill:#ff6600;fill-opacity:1"
       id="rect210"
       width="50"
       height="100"
       x="4500"
       y="2750" /><rect
       style="opacity:1;fill:#ff6600;fill-opacity:1"
       id="rect211"
       width="50"
       height="100"
       x="4500"
       y="3700" /><rect
       style="opacity:1;fill:#ff6600;fill-opacity:1"
       id="rect212"
       width="50.474857"
       height="100"
       x="4750"
       y="3450" /><rect
       style="opacity:1;fill:#ff6600;fill-opacity:1"
       id="rect213"
       width="50"
       height="100"
       x="5700"
       y="2150" /><rect
       style="opacity:1;fill:#ff6600;fill-opacity:1"
       id="rect214"
       width="50"
       height="100"
       x="4950"
       y="2150" /><rect
       style="opacity:1;fill:#ff6600;fill-opacity:1"
       id="rect217"
       width="48.96801"
       height="100"
       x="5401.0322"
       y="3400" /><rect
       style="opacity:1;fill:#ff6600;fill-opacity:1"
       id="rect218"
       width="50"
       height="100"
       x="6350"
       y="2850" /><rect
       style="opacity:1;fill:#ff6600;fill-opacity:1"
       id="rect219"
       width="50"
       height="100"
       x="6900"
       y="2800" /><rect
       style="opacity:1;fill:#ff6600;fill-opacity:1"
       id="rect220"
       width="50"
       height="100"
       x="7500"
       y="2900" /><rect
       style="opacity:1;fill:#ff6600;fill-opacity:1"
       id="rect221"
       width="50"
       height="100"
       x="6300"
       y="2100" /><rect
       style="opacity:1;fill:#ff6600;fill-opacity:1"
       id="rect222"
       width="50.236645"
       height="100"
       x="5700"
       y="500" /></g><g
     id="layer11"
     style="fill:#800080"
     inkscape:label="ShieldEnemy"><rect
       style="opacity:1;fill:#800080;fill-opacity:1"
       id="rect223"
       width="50"
       height="100"
       x="2900"
       y="3300" /><rect
       style="opacity:1;fill:#800080;fill-opacity:1"
       id="rect224"
       width="50"
       height="100"
       x="1400"
       y="3900" /><rect
       style="opacity:1;fill:#800080;fill-opacity:1"
       id="rect225"
       width="50.195038"
       height="100"
       x="2449.8049"
       y="4550" /><rect
       style="opacity:1;fill:#800080;fill-opacity:1"
       id="rect226"
       width="48.129959"
       height="100"
       x="3700"
       y="4800" /><rect
       style="opacity:1;fill:#800080;fill-opacity:1"
       id="rect227"
       width="50.916199"
       height="100"
       x="4050"
       y="2750" /><rect
       style="opacity:1;fill:#800080;fill-opacity:1"
       id="rect228"
       width="49.525143"
       height="97.861839"
       x="4800.4751"
       y="3902.1382" /><rect
       style="opacity:1;fill:#800080;fill-opacity:1"
       id="rect229"
       width="50"
       height="100"
       x="6050"
       y="2300" /><rect
       style="opacity:1;fill:#800080;fill-opacity:1"
       id="rect230"
       width="50"
       height="100"
       x="7150"
       y="3150" /><rect
       style="opacity:1;fill:#800080;fill-opacity:1"
       id="rect231"
       width="50"
       height="100"
       x="6200"
       y="500" /></g></svg>
