<?xml version="1.0" encoding="UTF-8" standalone="no"?>
<!-- Created with Inkscape (http://www.inkscape.org/) -->

<svg
   width="8000"
   height="5000"
   viewBox="0 0 8000 5000"
   version="1.1"
   id="svg1"
   xml:space="preserve"
   sodipodi:docname="Map1.1.svg"
   inkscape:version="1.4.2 (f4327f4, 2025-05-13)"
   xmlns:inkscape="http://www.inkscape.org/namespaces/inkscape"
   xmlns:sodipodi="http://sodipodi.sourceforge.net/DTD/sodipodi-0.dtd"
   xmlns="http://www.w3.org/2000/svg"
   xmlns:svg="http://www.w3.org/2000/svg"><sodipodi:namedview
     id="namedview1"
     pagecolor="#ffffff"
     bordercolor="#000000"
     borderopacity="0.25"
     inkscape:showpageshadow="2"
     inkscape:pageopacity="0.0"
     inkscape:pagecheckerboard="0"
     inkscape:deskcolor="#d1d1d1"
     inkscape:zoom="0.9704"
     inkscape:cx="4835.1195"
     inkscape:cy="2768.9613"
     inkscape:window-width="2560"
     inkscape:window-height="1494"
     inkscape:window-x="-11"
     inkscape:window-y="-11"
     inkscape:window-maximized="1"
     inkscape:current-layer="layer4"
     showgrid="true"><inkscape:grid
       id="grid1"
       units="px"
       originx="0"
       originy="0"
       spacingx="50"
       spacingy="50"
       empcolor="#0099e5"
       empopacity="0.30196078"
       color="#0099e5"
       opacity="0.14901961"
       empspacing="5"
       enabled="true"
       visible="true" /></sodipodi:namedview><defs
     id="defs1" /><g
     id="layer2"
     inkscape:label="Platform"><rect
       style="opacity:1;fill:#000000"
       id="rect1"
       width="1400"
       height="50.526123"
       x="0"
       y="4049.4739" /><rect
       style="opacity:1;fill:#000000"
       id="rect2"
       width="50"
       height="299.47388"
       x="1350"
       y="3750" /><rect
       style="opacity:1;fill:#000000"
       id="rect3"
       width="50"
       height="300"
       x="0"
       y="3750" /><rect
       style="opacity:1;fill:#000000"
       id="rect4"
       width="500"
       height="50"
       x="50"
       y="3750" /><rect
       style="opacity:1;fill:#000000"
       id="rect5"
       width="550"
       height="50"
       x="800"
       y="3750" /><rect
       style="opacity:1;fill:#000000"
       id="rect6"
       width="50"
       height="100"
       x="500"
       y="3650" /><rect
       style="opacity:1;fill:#000000"
       id="rect7"
       width="50"
       height="100"
       x="800"
       y="3650" /><rect
       style="opacity:1;fill:#000000"
       id="rect8"
       width="400"
       height="50"
       x="150"
       y="3600" /><rect
       style="opacity:1;fill:#000000"
       id="rect9"
       width="50"
       height="500.37552"
       x="150"
       y="3099.6245" /><rect
       style="opacity:1;fill:#000000"
       id="rect10"
       width="1050"
       height="50"
       x="800"
       y="3600" /><rect
       style="opacity:1;fill:#000000"
       id="rect11"
       width="50"
       height="150"
       x="1800"
       y="3450" /><rect
       style="opacity:1;fill:#000000"
       id="rect12"
       width="200"
       height="50"
       x="150"
       y="3050" /><rect
       style="opacity:1;fill:#000000"
       id="rect13"
       width="50"
       height="200"
       x="300"
       y="2850" /><rect
       style="opacity:1;fill:#000000"
       id="rect14"
       width="450"
       height="50"
       x="350"
       y="2850" /><rect
       style="opacity:1;fill:#000000"
       id="rect15"
       width="50"
       height="200"
       x="750"
       y="2900" /><rect
       style="opacity:1;fill:#000000"
       id="rect16"
       width="450"
       height="50"
       x="750"
       y="3100" /><rect
       style="opacity:1;fill:#000000"
       id="rect17"
       width="50"
       height="200"
       x="1150"
       y="3150" /><rect
       style="opacity:1;fill:#000000"
       id="rect18"
       width="1050"
       height="50"
       x="550"
       y="3350" /><rect
       style="opacity:1;fill:#000000"
       id="rect19"
       width="50"
       height="500"
       x="1250"
       y="2850" /><rect
       style="opacity:1;fill:#000000"
       id="rect20"
       width="1850"
       height="50"
       x="1250"
       y="2800" /><rect
       style="opacity:1;fill:#000000"
       id="rect21"
       width="50"
       height="200"
       x="3050"
       y="2850" /><rect
       style="opacity:1;fill:#000000"
       id="rect22"
       width="1250"
       height="50"
       x="1850"
       y="3450" /><rect
       style="opacity:1;fill:#000000"
       id="rect23"
       width="50"
       height="150"
       x="3050"
       y="3300" /><rect
       style="opacity:1;fill:#000000"
       id="rect24"
       width="300"
       height="50"
       x="3100"
       y="3300" /><rect
       style="opacity:1;fill:#000000"
       id="rect25"
       width="50"
       height="150"
       x="3350"
       y="3350" /><rect
       style="opacity:1;fill:#000000"
       id="rect26"
       width="450"
       height="50"
       x="3100"
       y="2999.9673" /><rect
       style="opacity:1;fill:#000000"
       id="rect27"
       width="50"
       height="200"
       x="3500"
       y="2799.9673" /><rect
       style="opacity:1;fill:#000000"
       id="rect28"
       width="350"
       height="50"
       x="3150"
       y="2800" /><rect
       style="opacity:1;fill:#000000"
       id="rect29"
       width="50"
       height="300"
       x="3150"
       y="2500"
       ry="0" /><rect
       style="opacity:1;fill:#000000"
       id="rect30"
       width="150"
       height="50"
       x="3200"
       y="2500" /><rect
       style="opacity:1;fill:#000000"
       id="rect31"
       width="50"
       height="300"
       x="3300"
       y="2200" /><rect
       style="opacity:1;fill:#000000"
       id="rect32"
       width="450"
       height="50"
       x="3350"
       y="2200" /><rect
       style="opacity:1;fill:#000000"
       id="rect33"
       width="1149.8817"
       height="50"
       x="3750"
       y="2150" /><rect
       style="opacity:1;fill:#000000"
       id="rect34"
       width="50"
       height="600"
       x="4850"
       y="2200" /><rect
       style="opacity:1;fill:#000000"
       id="rect35"
       width="100"
       height="50"
       x="4900"
       y="2750" /><rect
       style="opacity:1;fill:#000000"
       id="rect36"
       width="50"
       height="500"
       x="4950"
       y="2250" /><rect
       style="opacity:1;fill:#000000"
       id="rect37"
       width="50"
       height="1300"
       x="3800"
       y="2450" /><rect
       style="opacity:1;fill:#000000"
       id="rect38"
       width="800"
       height="50"
       x="3850"
       y="2750" /><rect
       style="opacity:1;fill:#000000"
       id="rect39"
       width="50"
       height="550"
       x="4650"
       y="2450" /><rect
       style="opacity:1;fill:#000000"
       id="rect40"
       width="1300"
       height="50"
       x="4700"
       y="2950" /><rect
       style="opacity:1;fill:#000000"
       id="rect41"
       width="900"
       height="50"
       x="4950"
       y="2200" /><rect
       style="opacity:1;fill:#000000"
       id="rect42"
       width="50"
       height="100"
       x="5800"
       y="2100" /><rect
       style="opacity:1;fill:#000000"
       id="rect43"
       width="200"
       height="50"
       x="5850"
       y="2100" /><rect
       style="opacity:1;fill:#000000"
       id="rect44"
       width="50"
       height="250"
       x="5950"
       y="2699.0801" /><rect
       style="opacity:1;fill:#000000"
       id="rect45"
       width="150"
       height="50"
       x="3250"
       y="3500" /><rect
       style="opacity:1;fill:#000000"
       id="rect46"
       width="50"
       height="950"
       x="3250"
       y="3550" /><rect
       style="opacity:1;fill:#000000"
       id="rect47"
       width="50"
       height="650"
       x="3550"
       y="4200" /><rect
       style="opacity:1;fill:#000000"
       id="rect48"
       width="1100"
       height="50"
       x="2450"
       y="4800" /><rect
       style="opacity:1;fill:#000000"
       id="rect49"
       width="50"
       height="450"
       x="2450"
       y="4350" /><rect
       style="opacity:1;fill:#000000"
       id="rect50"
       width="200"
       height="50"
       x="2500"
       y="4350" /><rect
       style="opacity:1;fill:#000000"
       id="rect51"
       width="50"
       height="100"
       x="2650"
       y="4250"
       ry="0" /><rect
       style="opacity:1;fill:#000000"
       id="rect52"
       width="100"
       height="50"
       x="2700"
       y="4250" /><rect
       style="opacity:1;fill:#000000"
       id="rect53"
       width="50"
       height="200"
       x="2750"
       y="4050" /><rect
       style="opacity:1;fill:#000000"
       id="rect54"
       width="200"
       height="50"
       x="2550"
       y="4050" /><rect
       style="opacity:1;fill:#000000"
       id="rect55"
       width="50"
       height="400"
       x="2500"
       y="3700" /><rect
       style="opacity:1;fill:#000000"
       id="rect56"
       width="399.35748"
       height="50"
       x="2550"
       y="3700" /><rect
       style="opacity:1;fill:#000000"
       id="rect57"
       width="50"
       height="150"
       x="2950"
       y="3700" /><rect
       style="opacity:1;fill:#000000"
       id="rect58"
       width="50"
       height="150"
       x="3000"
       y="3800" /><rect
       style="opacity:1;fill:#000000"
       id="rect59"
       width="200"
       height="50"
       x="3050"
       y="3900" /><rect
       style="opacity:1;fill:#000000"
       id="rect60"
       width="250"
       height="50"
       x="3600"
       y="3750" /><rect
       style="opacity:1;fill:#000000"
       id="rect61"
       width="50"
       height="100"
       x="3600"
       y="3800" /><rect
       style="opacity:1;fill:#000000"
       id="rect62"
       width="1150"
       height="50"
       x="3600"
       y="4200" /><rect
       style="opacity:1;fill:#000000"
       id="rect63"
       width="800"
       height="50"
       x="3650"
       y="3850" /><rect
       style="opacity:1;fill:#000000"
       id="rect64"
       width="50"
       height="600"
       x="4400"
       y="3250" /><rect
       style="opacity:1;fill:#000000"
       id="rect65"
       width="50"
       height="400"
       x="4700"
       y="3800" /><rect
       style="opacity:1;fill:#000000"
       id="rect66"
       width="100"
       height="50"
       x="4750"
       y="3800" /><rect
       style="opacity:1;fill:#000000"
       id="rect67"
       width="1250"
       height="50"
       x="4450"
       y="3250" /><rect
       style="opacity:1;fill:#000000"
       id="rect68"
       width="50"
       height="250"
       x="5650"
       y="3000" /><rect
       style="opacity:1;fill:#000000"
       id="rect69"
       width="1450"
       height="50"
       x="5950"
       y="3000" /><rect
       style="opacity:1;fill:#000000"
       id="rect70"
       width="200"
       height="50"
       x="7350"
       y="3050" /><rect
       style="opacity:1;fill:#000000"
       id="rect71"
       width="50"
       height="250"
       x="7500"
       y="3100" /><rect
       style="opacity:1;fill:#000000"
       id="rect72"
       width="150"
       height="48.685223"
       x="7400"
       y="3350" /><rect
       style="opacity:1;fill:#000000"
       id="rect73"
       width="50"
       height="250"
       x="7400"
       y="3400" /><rect
       style="opacity:1;fill:#000000"
       id="rect74"
       width="200"
       height="50"
       x="7400"
       y="3650" /><rect
       style="opacity:1;fill:#000000"
       id="rect75"
       width="50"
       height="250"
       x="7550"
       y="3700" /><rect
       style="opacity:1;fill:#000000"
       id="rect76"
       width="100"
       height="50"
       x="7600"
       y="3900" /><rect
       style="opacity:1;fill:#000000"
       id="rect77"
       width="50"
       height="200"
       x="4800"
       y="3600" /><rect
       style="opacity:1;fill:#000000"
       id="rect78"
       width="1000"
       height="50"
       x="4850"
       y="3600" /><rect
       style="opacity:1;fill:#000000"
       id="rect79"
       width="50"
       height="350"
       x="5850"
       y="3300" /><rect
       style="opacity:1;fill:#000000"
       id="rect80"
       width="200"
       height="50"
       x="5900"
       y="3300" /><rect
       style="opacity:1;fill:#000000"
       id="rect81"
       width="50"
       height="250"
       x="6050"
       y="3350" /><rect
       style="opacity:1;fill:#000000"
       id="rect82"
       width="600"
       height="50"
       x="6100"
       y="3550" /><rect
       style="opacity:1;fill:#000000"
       id="rect83"
       width="48.754662"
       height="150"
       x="6700"
       y="3550" /><rect
       style="opacity:1;fill:#000000"
       id="rect84"
       width="450"
       height="50"
       x="6250"
       y="3650" /><rect
       style="opacity:1;fill:#000000"
       id="rect85"
       width="50"
       height="300"
       x="6250"
       y="3700" /><rect
       style="opacity:1;fill:#000000"
       id="rect86"
       width="750"
       height="50"
       x="6300"
       y="3950" /><rect
       style="opacity:1;fill:#000000"
       id="rect87"
       width="50"
       height="700"
       x="7000"
       y="4000" /><rect
       style="opacity:1;fill:#000000"
       id="rect88"
       width="200"
       height="50"
       x="7050"
       y="4650" /><rect
       style="opacity:1;fill:#000000"
       id="rect89"
       width="50"
       height="300"
       x="7650"
       y="3950" /><rect
       style="opacity:1;fill:#000000"
       id="rect90"
       width="100"
       height="50"
       x="7550"
       y="4200" /><rect
       style="opacity:1;fill:#000000"
       id="rect91"
       width="50"
       height="400"
       x="7550"
       y="4250" /><rect
       style="opacity:1;fill:#000000"
       id="rect92"
       width="50"
       height="300"
       x="7200"
       y="4700" /><rect
       style="opacity:1;fill:#000000"
       id="rect93"
       width="750.90857"
       height="49.474442"
       x="7250"
       y="4950" /><rect
       style="opacity:1;fill:#000000"
       id="rect94"
       width="50"
       height="300"
       x="7950"
       y="4650" /><rect
       style="opacity:1;fill:#000000"
       id="rect95"
       width="400"
       height="50"
       x="7550"
       y="4650" /><rect
       style="opacity:1;fill:#000000"
       id="rect96"
       width="450"
       height="50"
       x="6000"
       y="2700" /><rect
       style="opacity:1;fill:#000000"
       id="rect98"
       width="50"
       height="550"
       x="6400"
       y="2150" /><rect
       style="opacity:1;fill:#000000"
       id="rect99"
       width="100"
       height="50"
       x="6400"
       y="2100" /><rect
       style="opacity:1;fill:#000000"
       id="rect100"
       width="50"
       height="1000"
       x="6450"
       y="1100" /><rect
       style="opacity:1;fill:#000000"
       id="rect101"
       width="50"
       height="700"
       x="6000"
       y="1400" /><rect
       style="opacity:1;fill:#000000"
       id="rect102"
       width="350"
       height="50"
       x="5649.9497"
       y="1400" /><rect
       style="opacity:1;fill:#000000"
       id="rect103"
       width="50"
       height="500"
       x="5649.9497"
       y="900" /><rect
       style="opacity:1;fill:#000000"
       id="rect104"
       width="50"
       height="250"
       x="5950"
       y="900" /><rect
       style="opacity:1;fill:#000000"
       id="rect105"
       width="450"
       height="50"
       x="6000"
       y="1100" /><rect
       style="opacity:1;fill:#000000"
       id="rect106"
       width="1450"
       height="50"
       x="4200.1895"
       y="900" /><rect
       style="opacity:1;fill:#000000"
       id="rect107"
       width="50"
       height="450"
       x="4200"
       y="450" /><rect
       style="opacity:1;fill:#000000"
       id="rect108"
       width="50"
       height="250"
       x="4250"
       y="250" /><rect
       style="opacity:1;fill:#000000"
       id="rect109"
       width="650"
       height="50"
       x="4300"
       y="250" /><rect
       style="opacity:1;fill:#000000"
       id="rect110"
       width="50"
       height="350"
       x="4950"
       y="250" /><rect
       style="opacity:1;fill:#000000"
       id="rect111"
       width="950"
       height="50"
       x="5000"
       y="550" /><rect
       style="opacity:1;fill:#000000"
       id="rect112"
       width="50"
       height="300"
       x="5900"
       y="250" /><rect
       style="opacity:1;fill:#000000"
       id="rect113"
       width="1500"
       height="50"
       x="5950"
       y="250" /><rect
       style="opacity:1;fill:#000000"
       id="rect114"
       width="350"
       height="50"
       x="6000"
       y="900" /><rect
       style="opacity:1;fill:#000000"
       id="rect115"
       width="50"
       height="300"
       x="6300"
       y="600" /><rect
       style="opacity:1;fill:#000000"
       id="rect116"
       width="150"
       height="49.683651"
       x="6350"
       y="600" /><rect
       style="opacity:1;fill:#000000"
       id="rect117"
       width="800"
       height="50"
       x="6450"
       y="650" /><rect
       style="opacity:1;fill:#000000"
       id="rect118"
       width="250"
       height="50"
       x="7199.9238"
       y="599.26343" /><rect
       style="opacity:1;fill:#000000"
       id="rect119"
       width="50"
       height="300"
       x="7400"
       y="300" /><rect
       style="opacity:1;fill:#000000"
       id="rect141"
       width="199.62398"
       height="150"
       x="4350.376"
       y="2450" /><rect
       style="opacity:1;fill:#000000"
       id="rect145"
       width="50"
       height="150"
       x="5600"
       y="2350" /><rect
       style="opacity:1;fill:#000000"
       id="rect151"
       width="450"
       height="50"
       x="4500"
       y="550" /></g><g
     id="layer3"
     inkscape:label="TwoWayPlatform"><rect
       style="opacity:1;fill:#bfbfbf"
       id="rect120"
       width="350"
       height="50"
       x="500"
       y="3800" /><rect
       style="opacity:1;fill:#bfbfbf"
       id="rect121"
       width="200"
       height="50"
       x="350"
       y="3350" /><rect
       style="opacity:1;fill:#bfbfbf"
       id="rect122"
       width="250"
       height="50"
       x="500"
       y="3100" /><rect
       style="opacity:1;fill:#bfbfbf"
       id="rect123"
       width="500"
       height="50"
       x="1300"
       y="3050" /><rect
       style="opacity:1;fill:#bfbfbf"
       id="rect124"
       width="400"
       height="50"
       x="2150"
       y="3200" /><rect
       style="opacity:1;fill:#bfbfbf"
       id="rect125"
       width="400"
       height="50"
       x="2650"
       y="3000" /><rect
       style="opacity:1;fill:#bfbfbf"
       id="rect126"
       width="100"
       height="50"
       x="3700"
       y="2450" /><rect
       style="opacity:1;fill:#bfbfbf"
       id="rect127"
       width="250"
       height="50"
       x="3400"
       y="3500" /><rect
       style="opacity:1;fill:#bfbfbf"
       id="rect128"
       width="200"
       height="50"
       x="3350"
       y="2500" /><rect
       style="opacity:1;fill:#bfbfbf"
       id="rect129"
       width="200"
       height="50"
       x="3300"
       y="3850" /><rect
       style="opacity:1;fill:#bfbfbf"
       id="rect130"
       width="400"
       height="50"
       x="2500"
       y="4550" /><rect
       style="opacity:1;fill:#bfbfbf"
       id="rect131"
       width="300"
       height="50"
       x="2950"
       y="4200" /><rect
       style="opacity:1;fill:#bfbfbf"
       id="rect132"
       width="300"
       height="50"
       x="4400"
       y="3900" /><rect
       style="opacity:1;fill:#bfbfbf"
       id="rect133"
       width="350"
       height="50"
       x="4450"
       y="3600" /><rect
       style="opacity:1;fill:#bfbfbf"
       id="rect134"
       width="350"
       height="50"
       x="6100"
       y="3300" /><rect
       style="opacity:1;fill:#bfbfbf"
       id="rect135"
       width="450"
       height="50"
       x="6950"
       y="3600" /><rect
       style="opacity:1;fill:#bfbfbf"
       id="rect136"
       width="400"
       height="50"
       x="7000"
       y="3350" /><rect
       style="opacity:1;fill:#bfbfbf"
       id="rect137"
       width="300"
       height="50"
       x="7250"
       y="4350" /><rect
       style="opacity:1;fill:#bfbfbf"
       id="rect138"
       width="300"
       height="50"
       x="7050"
       y="3950" /><rect
       style="opacity:1;fill:#bfbfbf"
       id="rect142"
       width="300"
       height="54.005447"
       x="3950"
       y="2450" /><rect
       style="opacity:1;fill:#bfbfbf"
       id="rect143"
       width="500"
       height="50"
       x="5150"
       y="2500" /><rect
       style="opacity:1;fill:#bfbfbf"
       id="rect144"
       width="550"
       height="50"
       x="5300"
       y="2700" /><rect
       style="opacity:1;fill:#bfbfbf"
       id="rect146"
       width="250"
       height="50"
       x="6150"
       y="2350" /><rect
       style="opacity:1;fill:#bfbfbf"
       id="rect147"
       width="200"
       height="50.524139"
       x="6250"
       y="1900" /><rect
       style="opacity:1;fill:#bfbfbf"
       id="rect148"
       width="300"
       height="50"
       x="6150"
       y="1400" /><rect
       style="opacity:1;fill:#bfbfbf"
       id="rect149"
       width="250"
       height="50"
       x="5700"
       y="1100" /><rect
       style="opacity:1;fill:#bfbfbf"
       id="rect150"
       width="400"
       height="50"
       x="5900"
       y="600" /></g><g
     id="layer4"
     inkscape:label="Zipline"><rect
       style="opacity:1;fill:#ffcc00"
       id="rect139"
       width="50"
       height="1500"
       x="3650"
       y="2250" /><rect
       style="opacity:1;fill:#ffcc00"
       id="rect140"
       width="50"
       height="1550"
       x="6050"
       y="1150" /><rect
       style="opacity:1;fill:#ffcc00"
       id="rect152"
       width="50"
       height="1250"
       x="3500"
       y="3550" /><rect
       style="fill:#ffcc00"
       id="rect208"
       width="50"
       height="750"
       x="4700"
       y="2200" /></g><g
     id="layer5"
     style="fill:#00cc00"
     inkscape:label="Player"><rect
       style="fill:#00cc00"
       id="rect97"
       width="50"
       height="100"
       x="150"
       y="3950" /></g><g
     id="layer6"
     inkscape:label="Backdoor"><rect
       style="fill:#6699ff"
       id="rect153"
       width="49.634258"
       height="100"
       x="1400"
       y="3500" /><rect
       style="fill:#6699ff"
       id="rect154"
       width="50"
       height="100"
       x="4050"
       y="4100" /><rect
       style="fill:#6699ff"
       id="rect155"
       width="50"
       height="100"
       x="7400"
       y="4250" /><rect
       style="fill:#6699ff"
       id="rect156"
       width="50"
       height="100"
       x="4850"
       y="2850" /><rect
       style="fill:#6699ff"
       id="rect157"
       width="50"
       height="100"
       x="5550"
       y="800" /></g><g
     id="layer7"
     inkscape:label="Portal"><rect
       style="fill:#003399"
       id="rect158"
       width="50"
       height="100"
       x="4850"
       y="450" /></g><g
     id="layer8"
     style="fill:#ff00ff"
     inkscape:label="MeleeStoryEnemy"><rect
       style="fill:#ff00ff"
       id="rect159"
       width="50"
       height="100"
       x="7300"
       y="500" /><rect
       style="fill:#ff00ff"
       id="rect160"
       width="50"
       height="100"
       x="7800"
       y="4850" /><rect
       style="fill:#ff00ff"
       id="rect161"
       width="50"
       height="100"
       x="2650"
       y="3950" /></g><g
     id="layer9"
     inkscape:label="MeleeEnemy"><rect
       style="fill:#ff0000"
       id="rect162"
       width="50"
       height="100"
       x="1150"
       y="3950" /><rect
       style="fill:#ff0000"
       id="rect163"
       width="50"
       height="100"
       x="900"
       y="3500" /><rect
       style="fill:#ff0000"
       id="rect164"
       width="50"
       height="100"
       x="1400"
       y="3250" /><rect
       style="fill:#ff0000"
       id="rect165"
       width="50"
       height="100"
       x="2650"
       y="3350" /><rect
       style="fill:#ff0000"
       id="rect166"
       width="50"
       height="97.704674"
       x="2600"
       y="4702.2954" /><rect
       style="fill:#ff0000"
       id="rect167"
       width="50"
       height="104.04512"
       x="3250"
       y="2695.9548" /><rect
       style="fill:#ff0000"
       id="rect168"
       width="50"
       height="100"
       x="4050"
       y="2350" /><rect
       style="fill:#ff0000"
       id="rect169"
       width="50"
       height="100"
       x="3750"
       y="4100" /><rect
       style="fill:#ff0000"
       id="rect170"
       width="50"
       height="100"
       x="5000"
       y="3500" /><rect
       style="fill:#ff0000"
       id="rect171"
       width="50"
       height="100"
       x="5900"
       y="3200" /><rect
       style="fill:#ff0000"
       id="rect172"
       width="50"
       height="102.69903"
       x="6300"
       y="3447.301" /><rect
       style="fill:#ff0000"
       id="rect173"
       width="50"
       height="100"
       x="7300"
       y="3250" /><rect
       style="fill:#ff0000"
       id="rect174"
       width="50"
       height="100"
       x="7100"
       y="4550" /><rect
       style="fill:#ff0000"
       id="rect175"
       width="50"
       height="100"
       x="6500"
       y="3850" /><rect
       style="fill:#ff0000"
       id="rect176"
       width="50"
       height="100"
       x="5750"
       y="2850" /><rect
       style="fill:#ff0000"
       id="rect177"
       width="50"
       height="100"
       x="6150"
       y="800" /><rect
       style="fill:#ff0000"
       id="rect178"
       width="50"
       height="100"
       x="4450"
       y="800" /></g><g
     id="layer10"
     inkscape:label="RangeEnemy"><rect
       style="fill:#ff6600"
       id="rect179"
       width="49.972954"
       height="100"
       x="600.02704"
       y="3250" /><rect
       style="fill:#ff6600"
       id="rect180"
       width="50"
       height="100"
       x="1450"
       y="2950" /><rect
       style="fill:#ff6600"
       id="rect181"
       width="49.357483"
       height="100"
       x="2900"
       y="2900" /><rect
       style="fill:#ff6600"
       id="rect182"
       width="50"
       height="100"
       x="2250"
       y="3100" /><rect
       style="fill:#ff6600"
       id="rect183"
       width="50"
       height="100"
       x="3200"
       y="3200" /><rect
       style="fill:#ff6600"
       id="rect184"
       width="50"
       height="96.674225"
       x="2700"
       y="4453.3257" /><rect
       style="fill:#ff6600"
       id="rect185"
       width="50"
       height="100"
       x="3100"
       y="4100" /><rect
       style="fill:#ff6600"
       id="rect186"
       width="48.762161"
       height="100"
       x="4351.2378"
       y="4100" /><rect
       style="fill:#ff6600"
       id="rect187"
       width="47.918827"
       height="100"
       x="5401.2852"
       y="3500" /><rect
       style="fill:#ff6600"
       id="rect188"
       width="51.806149"
       height="100"
       x="6148.1938"
       y="3200" /><rect
       style="fill:#ff6600"
       id="rect189"
       width="50.002094"
       height="100"
       x="6849.2671"
       y="3850" /><rect
       style="fill:#ff6600"
       id="rect190"
       width="49.846706"
       height="100"
       x="3400.1533"
       y="2400" /><rect
       style="fill:#ff6600"
       id="rect191"
       width="50"
       height="100"
       x="4150"
       y="2650" /><rect
       style="fill:#ff6600"
       id="rect192"
       width="50"
       height="100"
       x="5250"
       y="2850" /><rect
       style="fill:#ff6600"
       id="rect193"
       width="50"
       height="100"
       x="5600"
       y="2600" /><rect
       style="fill:#ff6600"
       id="rect194"
       width="48.662975"
       height="100"
       x="6551.3369"
       y="550" /><rect
       style="fill:#ff6600"
       id="rect195"
       width="49.788097"
       height="100"
       x="4700.2119"
       y="800" /><rect
       style="fill:#ff6600"
       id="rect196"
       width="7.0676932"
       height="4.1668544"
       x="4967.9321"
       y="1068.7982" /><rect
       style="fill:#ff6600"
       id="rect205"
       width="50"
       height="100"
       x="7200"
       y="3500" /></g><g
     id="layer11"
     inkscape:label="ShieldEnemy"><rect
       style="fill:#800080"
       id="rect197"
       width="50"
       height="100"
       x="900"
       y="3250" /><rect
       style="fill:#800080"
       id="rect198"
       width="50.12347"
       height="100"
       x="1999.8766"
       y="3350" /><rect
       style="fill:#800080"
       id="rect199"
       width="50"
       height="100"
       x="3050"
       y="4702.2954" /><rect
       style="fill:#800080"
       id="rect200"
       width="50"
       height="100"
       x="4650"
       y="3500" /><rect
       style="fill:#800080"
       id="rect201"
       width="50"
       height="100"
       x="4500"
       y="2650" /><rect
       style="fill:#800080"
       id="rect202"
       width="50"
       height="100"
       x="5300"
       y="2400" /><rect
       style="fill:#800080"
       id="rect203"
       width="50"
       height="100"
       x="6500"
       y="3450" /><rect
       style="fill:#800080"
       id="rect204"
       width="50"
       height="100"
       x="7450"
       y="4850" /><rect
       style="fill:#800080"
       id="rect206"
       width="50"
       height="100"
       x="6950"
       y="550" /><rect
       style="fill:#800080"
       id="rect207"
       width="50"
       height="100"
       x="5000"
       y="800" /></g></svg>
