<?xml version="1.0" encoding="UTF-8" standalone="no"?>
<svg
   width="8000"
   height="5000"
   viewBox="0 0 8000 5000"
   version="1.1"
   id="svg1"
   xml:space="preserve"
   sodipodi:docname="Map3.1.svg"
   inkscape:version="1.4.2 (f4327f4, 2025-05-13)"
   xmlns:inkscape="http://www.inkscape.org/namespaces/inkscape"
   xmlns:sodipodi="http://sodipodi.sourceforge.net/DTD/sodipodi-0.dtd"
   xmlns="http://www.w3.org/2000/svg"
   xmlns:svg="http://www.w3.org/2000/svg"><sodipodi:namedview
     id="namedview1"
     pagecolor="#ffffff"
     bordercolor="#000000"
     borderopacity="0.25"
     inkscape:showpageshadow="2"
     inkscape:pageopacity="0.0"
     inkscape:pagecheckerboard="0"
     inkscape:deskcolor="#d1d1d1"
     inkscape:zoom="0.1213"
     inkscape:cx="2877.1641"
     inkscape:cy="2922.5062"
     inkscape:window-width="2560"
     inkscape:window-height="1494"
     inkscape:window-x="-11"
     inkscape:window-y="-11"
     inkscape:window-maximized="1"
     inkscape:current-layer="svg1" /><defs
     id="defs1" /><g
     id="layer2"
     style="fill:#000000"
     inkscape:label="Platform"><rect
       style="opacity:1;fill:#000000;stroke-width:0.0700034"
       id="rect1"
       width="50"
       height="300"
       x="0"
       y="2900" /><rect
       style="opacity:1;fill:#000000;stroke-width:0.0700034"
       id="rect2"
       width="350"
       height="50"
       x="50"
       y="3150" /><rect
       style="opacity:1;fill:#000000;stroke-width:0.0700034"
       id="rect3"
       width="50"
       height="250"
       x="400"
       y="3150" /><rect
       style="opacity:1;fill:#000000;stroke-width:0.0700034"
       id="rect4"
       width="800"
       height="50"
       x="450"
       y="3350" /><rect
       style="opacity:1;fill:#000000;stroke-width:0.0700034"
       id="rect5"
       width="50"
       height="250"
       x="1250"
       y="3150" /><rect
       style="opacity:1;fill:#000000;stroke-width:0.0700034"
       id="rect6"
       width="2300"
       height="50"
       x="1300"
       y="3150" /><rect
       style="opacity:1;fill:#000000;stroke-width:0.0700034"
       id="rect7"
       width="50"
       height="450"
       x="3600"
       y="2850" /><rect
       style="opacity:1;fill:#000000;stroke-width:0.0700034"
       id="rect8"
       width="800"
       height="50"
       x="2800"
       y="3250" /><rect
       style="opacity:1;fill:#000000;stroke-width:0.0700034"
       id="rect9"
       width="50"
       height="350"
       x="2750"
       y="3250" /><rect
       style="opacity:1;fill:#000000;stroke-width:0.0700034"
       id="rect10"
       width="100"
       height="50"
       x="2750"
       y="3600" /><rect
       style="opacity:1;fill:#000000;stroke-width:0.0700034"
       id="rect11"
       width="50"
       height="150"
       x="2850"
       y="3600" /><rect
       style="opacity:1;fill:#000000;stroke-width:0.0700034"
       id="rect12"
       width="350"
       height="50"
       x="2900"
       y="3700" /><rect
       style="opacity:1;fill:#000000;stroke-width:0.0700034"
       id="rect13"
       width="50"
       height="150"
       x="3250"
       y="3600" /><rect
       style="opacity:1;fill:#000000;stroke-width:0.0700034"
       id="rect14"
       width="50"
       height="50"
       x="3300"
       y="3600" /><rect
       style="opacity:1;fill:#000000;stroke-width:0.0700034"
       id="rect15"
       width="50"
       height="150"
       x="3350"
       y="3600" /><rect
       style="opacity:1;fill:#000000;stroke-width:0.0700034"
       id="rect16"
       width="700"
       height="50"
       x="3400"
       y="3700" /><rect
       style="opacity:1;fill:#000000;stroke-width:0.0700034"
       id="rect17"
       width="50"
       height="150"
       x="4100"
       y="3700" /><rect
       style="opacity:1;fill:#000000;stroke-width:0.0700034"
       id="rect18"
       width="350"
       height="50"
       x="3800"
       y="3850" /><rect
       style="opacity:1;fill:#000000;stroke-width:0.0700034"
       id="rect19"
       width="50"
       height="250"
       x="3750"
       y="3850" /><rect
       style="opacity:1;fill:#000000;stroke-width:0.0700034"
       id="rect20"
       width="600"
       height="50"
       x="3750"
       y="4100" /><rect
       style="opacity:1;fill:#000000;stroke-width:0.0700034"
       id="rect21"
       width="50"
       height="450"
       x="4350"
       y="3700" /><rect
       style="opacity:1;fill:#000000;stroke-width:0.0700034"
       id="rect22"
       width="50"
       height="750"
       x="3900"
       y="2700" /><rect
       style="opacity:1;fill:#000000;stroke-width:0.0700034"
       id="rect23"
       width="450"
       height="50"
       x="3950"
       y="3400" /><rect
       style="opacity:1;fill:#000000;stroke-width:0.0700034"
       id="rect24"
       width="50"
       height="350"
       x="4400"
       y="3400" /><rect
       style="opacity:1;fill:#000000;stroke-width:0.0700034"
       id="rect25"
       width="50"
       height="200"
       x="3400"
       y="2700" /><rect
       style="opacity:1;fill:#000000;stroke-width:0.0700034"
       id="rect26"
       width="550"
       height="50"
       x="3400"
       y="2650" /><rect
       style="opacity:1;fill:#000000;stroke-width:0.0700034"
       id="rect28"
       width="2400"
       height="50"
       x="0"
       y="2850" /><rect
       style="opacity:1;fill:#000000;stroke-width:0.0700034"
       id="rect29"
       width="750"
       height="50"
       x="2650"
       y="2850" /><rect
       style="fill:#000000;stroke-width:0.0700034"
       id="rect27"
       width="50"
       height="100"
       x="2350"
       y="2750" /><rect
       style="fill:#000000;stroke-width:0.0700034"
       id="rect30"
       width="50"
       height="150"
       x="2650"
       y="2700" /><rect
       style="fill:#000000;stroke-width:0.0700034"
       id="rect31"
       width="100"
       height="50"
       x="2250"
       y="2750" /><rect
       style="fill:#000000;stroke-width:0.0700034"
       id="rect32"
       width="50"
       height="850"
       x="2250"
       y="1900" /><rect
       style="fill:#000000;stroke-width:0.0700034"
       id="rect33"
       width="50"
       height="400"
       x="2300"
       y="1550" /><rect
       style="fill:#000000;stroke-width:0.0700034"
       id="rect34"
       width="100"
       height="50"
       x="2200"
       y="1550" /><rect
       style="fill:#000000;stroke-width:0.0700034"
       id="rect35"
       width="50"
       height="900"
       x="2150"
       y="700" /><rect
       style="fill:#000000;stroke-width:0.0700034"
       id="rect36"
       width="50"
       height="300"
       x="2550"
       y="1800" /><rect
       style="fill:#000000;stroke-width:0.0700034"
       id="rect37"
       width="100"
       height="50"
       x="2500"
       y="2100" /><rect
       style="fill:#000000;stroke-width:0.0700034"
       id="rect38"
       width="50"
       height="100"
       x="2500"
       y="2150" /><rect
       style="fill:#000000;stroke-width:0.0700034"
       id="rect39"
       width="50"
       height="350"
       x="2550"
       y="2200" /><rect
       style="fill:#000000;stroke-width:0.0700034"
       id="rect40"
       width="100"
       height="50"
       x="2550"
       y="2550" /><rect
       style="fill:#000000;stroke-width:0.0700034"
       id="rect41"
       width="50"
       height="150"
       x="2600"
       y="2600" /><rect
       style="fill:#000000;stroke-width:0.0700034"
       id="rect42"
       width="1000"
       height="50"
       x="2550"
       y="1750" /><rect
       style="fill:#000000;stroke-width:0.0700034"
       id="rect43"
       width="50"
       height="150"
       x="3500"
       y="1800" /><rect
       style="fill:#000000;stroke-width:0.0700034"
       id="rect44"
       width="300"
       height="50"
       x="3250"
       y="1950" /><rect
       style="fill:#000000;stroke-width:0.0700034"
       id="rect45"
       width="50"
       height="350"
       x="3250"
       y="2000" /><rect
       style="fill:#000000;stroke-width:0.0700034"
       id="rect46"
       width="350"
       height="50"
       x="3300"
       y="2300" /><rect
       style="fill:#000000;stroke-width:0.0700034"
       id="rect47"
       width="50"
       height="200"
       x="3650"
       y="2150" /><rect
       style="fill:#000000;stroke-width:0.0700034"
       id="rect48"
       width="50"
       height="650"
       x="3800"
       y="1500" /><rect
       style="fill:#000000;stroke-width:0.0700034"
       id="rect49"
       width="150"
       height="50"
       x="3700"
       y="2150" /><rect
       style="fill:#000000;stroke-width:0.0700034"
       id="rect50"
       width="1300"
       height="50"
       x="2500"
       y="1500" /><rect
       style="fill:#000000;stroke-width:0.0700034"
       id="rect51"
       width="50"
       height="150"
       x="2500"
       y="1350" /><rect
       style="fill:#000000;stroke-width:0.0700034"
       id="rect52"
       width="300"
       height="50"
       x="2550"
       y="1350" /><rect
       style="fill:#000000;stroke-width:0.0700034"
       id="rect53"
       width="350"
       height="50"
       x="2800"
       y="1400" /><rect
       style="fill:#000000;stroke-width:0.0700034"
       id="rect54"
       width="1250"
       height="50"
       x="3100"
       y="1350" /><rect
       style="fill:#000000;stroke-width:0.0700034"
       id="rect55"
       width="50"
       height="300"
       x="4300"
       y="1400" /><rect
       style="fill:#000000;stroke-width:0.0700034"
       id="rect57"
       width="650"
       height="50"
       x="2500"
       y="1100" /><rect
       style="fill:#000000;stroke-width:0.0700034"
       id="rect58"
       width="50"
       height="600"
       x="2500"
       y="500" /><rect
       style="fill:#000000;stroke-width:0.0700034"
       id="rect59"
       width="200"
       height="50"
       x="1950"
       y="700" /><rect
       style="fill:#000000;stroke-width:0.0700034"
       id="rect60"
       width="50"
       height="400"
       x="1950"
       y="750" /><rect
       style="fill:#000000;stroke-width:0.0700034"
       id="rect61"
       width="650"
       height="50"
       x="1300"
       y="1100" /><rect
       style="fill:#000000;stroke-width:0.0700034"
       id="rect62"
       width="50"
       height="400"
       x="1300"
       y="700" /><rect
       style="fill:#000000;stroke-width:0.0700034"
       id="rect63"
       width="400"
       height="50"
       x="900"
       y="700" /><rect
       style="fill:#000000;stroke-width:0.0700034"
       id="rect64"
       width="50"
       height="250"
       x="900"
       y="450" /><rect
       style="fill:#000000;stroke-width:0.0700034"
       id="rect65"
       width="100"
       height="50"
       x="800"
       y="450" /><rect
       style="fill:#000000;stroke-width:0.0700034"
       id="rect66"
       width="50"
       height="750"
       x="800"
       y="500" /><rect
       style="fill:#000000;stroke-width:0.0700034"
       id="rect67"
       width="50"
       height="450"
       x="850"
       y="1200" /><rect
       style="fill:#000000;stroke-width:0.0700034"
       id="rect68"
       width="50"
       height="200"
       x="800"
       y="1600" /><rect
       style="fill:#000000;stroke-width:0.0700034"
       id="rect69"
       width="350"
       height="50"
       x="850"
       y="1750" /><rect
       style="fill:#000000;stroke-width:0.0700034"
       id="rect70"
       width="50"
       height="800"
       x="1150"
       y="1800" /><rect
       style="fill:#000000;stroke-width:0.0700034"
       id="rect71"
       width="350"
       height="50"
       x="1200"
       y="2550" /><rect
       style="fill:#000000;stroke-width:0.0700034"
       id="rect72"
       width="50"
       height="250"
       x="1500"
       y="2600" /><rect
       style="fill:#000000;stroke-width:0.0700034"
       id="rect73"
       width="650"
       height="50"
       x="850"
       y="2800" /><rect
       style="fill:#000000;stroke-width:0.0700034"
       id="rect74"
       width="50"
       height="850"
       x="800"
       y="2000" /><rect
       style="fill:#000000;stroke-width:0.0700034"
       id="rect75"
       width="200"
       height="50"
       x="600"
       y="2000" /><rect
       style="fill:#000000;stroke-width:0.0700034"
       id="rect76"
       width="50"
       height="550"
       x="600"
       y="1450" /><rect
       style="fill:#000000;stroke-width:0.0700034"
       id="rect77"
       width="500"
       height="50"
       x="100"
       y="1450" /><rect
       style="fill:#000000;stroke-width:0.0700034"
       id="rect78"
       width="50"
       height="300"
       x="100"
       y="1150" /><rect
       style="fill:#000000;stroke-width:0.0700034"
       id="rect79"
       width="450"
       height="50"
       x="150"
       y="1150" /><rect
       style="fill:#000000;stroke-width:0.0700034"
       id="rect80"
       width="50"
       height="150"
       x="550"
       y="1000" /><rect
       style="fill:#000000;stroke-width:0.0700034"
       id="rect81"
       width="550"
       height="50"
       x="0"
       y="1000" /><rect
       style="fill:#000000;stroke-width:0.0700034"
       id="rect82"
       width="50"
       height="250"
       x="0"
       y="750" /><rect
       style="fill:#000000;stroke-width:0.0700034"
       id="rect83"
       width="450"
       height="50"
       x="50"
       y="750" /><rect
       style="fill:#000000;stroke-width:0.0700034"
       id="rect84"
       width="50"
       height="500"
       x="300"
       y="250" /><rect
       style="fill:#000000;stroke-width:0.0700034"
       id="rect85"
       width="0"
       height="0"
       x="450"
       y="700" /><rect
       style="fill:#000000;stroke-width:0.0700034"
       id="rect86"
       width="100"
       height="50"
       x="350"
       y="250" /><rect
       style="fill:#000000;stroke-width:0.0700034"
       id="rect87"
       width="50"
       height="250"
       x="400"
       y="0" /><rect
       style="fill:#000000;stroke-width:0.0700034"
       id="rect88"
       width="300"
       height="50"
       x="450"
       y="0" /><rect
       style="fill:#000000;stroke-width:0.0700034"
       id="rect89"
       width="600"
       height="50"
       x="700"
       y="50" /><rect
       style="fill:#000000;stroke-width:0.0700034"
       id="rect90"
       width="50"
       height="200"
       x="1250"
       y="100" /><rect
       style="fill:#000000"
       id="rect91"
       width="150"
       height="50"
       x="1150"
       y="300" /><rect
       style="fill:#000000"
       id="rect92"
       width="50"
       height="200"
       x="1150"
       y="350" /><rect
       style="fill:#000000"
       id="rect93"
       width="1300"
       height="50"
       x="1200"
       y="500" /><rect
       style="fill:#000000"
       id="rect94"
       width="350.83932"
       height="50"
       x="1499.1606"
       y="900" /><rect
       style="fill:#000000"
       id="rect95"
       width="49.15638"
       height="200"
       x="1800.8436"
       y="700" /><rect
       style="fill:#000000"
       id="rect96"
       width="400"
       height="50"
       x="650"
       y="250" /><rect
       style="fill:#000000"
       id="rect97"
       width="50"
       height="250"
       x="3100"
       y="850" /><rect
       style="fill:#000000"
       id="rect98"
       width="750"
       height="50"
       x="3150"
       y="850" /><rect
       style="fill:#000000"
       id="rect99"
       width="50"
       height="250"
       x="3850"
       y="900" /><rect
       style="fill:#000000"
       id="rect101"
       width="50"
       height="250"
       x="5100"
       y="1150" /><rect
       style="fill:#000000"
       id="rect102"
       width="473.9003"
       height="50"
       x="4651.0996"
       y="1350" /><rect
       style="fill:#000000"
       id="rect103"
       width="1250"
       height="50"
       x="3900"
       y="1100" /><rect
       style="fill:#000000"
       id="rect104"
       width="48.900391"
       height="300"
       x="4651.0996"
       y="1400" /><rect
       style="fill:#000000"
       id="rect105"
       width="300"
       height="50"
       x="4000"
       y="1650" /><rect
       style="fill:#000000"
       id="rect106"
       width="51.43544"
       height="200"
       x="4000"
       y="1700" /><rect
       style="fill:#000000"
       id="rect107"
       width="199.50069"
       height="50"
       x="4000"
       y="1900" /><rect
       style="fill:#000000"
       id="rect108"
       width="150"
       height="50"
       x="4549.999"
       y="1699.7686" /><rect
       style="fill:#000000"
       id="rect109"
       width="50.000977"
       height="300.23145"
       x="4549.999"
       y="1749.7686" /><rect
       style="fill:#000000"
       id="rect110"
       width="50"
       height="200"
       x="4150"
       y="1950" /><rect
       style="fill:#000000"
       id="rect111"
       width="150"
       height="50"
       x="4000"
       y="2100" /><rect
       style="fill:#000000"
       id="rect112"
       width="50"
       height="400"
       x="4000"
       y="2150" /><rect
       style="fill:#000000"
       id="rect113"
       width="400"
       height="50"
       x="4050"
       y="2500" /><rect
       style="fill:#000000"
       id="rect114"
       width="50"
       height="100"
       x="4400"
       y="2550" /><rect
       style="fill:#000000"
       id="rect115"
       width="400"
       height="50"
       x="4000"
       y="2600" /><rect
       style="fill:#000000"
       id="rect116"
       width="50"
       height="500"
       x="4000"
       y="2650" /><rect
       style="fill:#000000"
       id="rect117"
       width="500"
       height="49.632153"
       x="4050"
       y="3100.3679" /><rect
       style="fill:#000000"
       id="rect118"
       width="200"
       height="50"
       x="4600"
       y="2000" /><rect
       style="fill:#000000"
       id="rect119"
       width="50"
       height="650"
       x="4750"
       y="2050" /><rect
       style="fill:#000000"
       id="rect120"
       width="100.10257"
       height="50"
       x="4699.9487"
       y="2700" /><rect
       style="fill:#000000"
       id="rect121"
       width="50"
       height="150"
       x="4700"
       y="2750" /><rect
       style="fill:#000000"
       id="rect122"
       width="50"
       height="50"
       x="4750"
       y="2850" /><rect
       style="fill:#000000"
       id="rect123"
       width="50"
       height="350"
       x="4750"
       y="2900" /><rect
       style="fill:#000000"
       id="rect124"
       width="50"
       height="400"
       x="4550"
       y="3100" /><rect
       style="fill:#000000"
       id="rect125"
       width="1750"
       height="50"
       x="4600"
       y="3450" /><rect
       style="fill:#000000"
       id="rect126"
       width="50"
       height="250"
       x="5850"
       y="3200" /><rect
       style="fill:#000000"
       id="rect127"
       width="550"
       height="50"
       x="4800"
       y="3200" /><rect
       style="fill:#000000"
       id="rect128"
       width="50"
       height="200"
       x="5300"
       y="3000" /><rect
       style="fill:#000000"
       id="rect129"
       width="950"
       height="50"
       x="5300"
       y="2950" /><rect
       style="fill:#000000"
       id="rect130"
       width="50"
       height="300"
       x="6200"
       y="3000" /><rect
       style="fill:#000000"
       id="rect131"
       width="100"
       height="50"
       x="6250"
       y="3250" /><rect
       style="fill:#000000"
       id="rect132"
       width="50"
       height="100"
       x="6300"
       y="3150" /><rect
       style="fill:#000000"
       id="rect133"
       width="500"
       height="50"
       x="6350"
       y="3150" /><rect
       style="fill:#000000"
       id="rect134"
       width="50"
       height="150"
       x="6800"
       y="3200" /><rect
       style="fill:#000000"
       id="rect135"
       width="200"
       height="50"
       x="6650"
       y="3350" /><rect
       style="fill:#000000"
       id="rect136"
       width="50"
       height="1000"
       x="6300"
       y="3500" /><rect
       style="fill:#000000"
       id="rect137"
       width="150"
       height="50"
       x="6150"
       y="4450" /><rect
       style="fill:#000000"
       id="rect138"
       width="50"
       height="150"
       x="6150"
       y="4500" /><rect
       style="fill:#000000"
       id="rect139"
       width="400"
       height="50"
       x="6150"
       y="4650" /><rect
       style="fill:#000000"
       id="rect140"
       width="50"
       height="500"
       x="6550"
       y="4200" /><rect
       style="fill:#000000"
       id="rect141"
       width="50"
       height="100"
       x="6650"
       y="3400" /><rect
       style="fill:#000000"
       id="rect142"
       width="200"
       height="50"
       x="6650"
       y="3500" /><rect
       style="fill:#000000"
       id="rect143"
       width="50"
       height="300"
       x="6800"
       y="3550" /><rect
       style="fill:#000000"
       id="rect144"
       width="250"
       height="50.77338"
       x="6550"
       y="3799.2266" /><rect
       style="fill:#000000"
       id="rect145"
       width="50"
       height="100"
       x="6550"
       y="3850" /><rect
       style="fill:#000000"
       id="rect146"
       width="1400"
       height="50"
       x="6600"
       y="3900" /><rect
       style="fill:#000000"
       id="rect147"
       width="50"
       height="650"
       x="7950"
       y="3950" /><rect
       style="fill:#000000"
       id="rect149"
       width="650"
       height="48.256912"
       x="7300"
       y="4551.7432" /><rect
       style="fill:#000000"
       id="rect150"
       width="50"
       height="350"
       x="7300"
       y="4600" /><rect
       style="fill:#000000"
       id="rect151"
       width="1399.1968"
       height="50"
       x="5700.8032"
       y="4700" /><rect
       style="fill:#000000"
       id="rect152"
       width="50"
       height="250"
       x="5700"
       y="4750" /><rect
       style="fill:#000000"
       id="rect153"
       width="1600"
       height="50"
       x="5750"
       y="4950" /><rect
       style="fill:#000000"
       id="rect154"
       width="50"
       height="350"
       x="7050"
       y="4350" /><rect
       style="fill:#000000"
       id="rect155"
       width="350"
       height="50"
       x="7100"
       y="4350" /><rect
       style="fill:#000000"
       id="rect156"
       width="49.164062"
       height="200"
       x="7400.8359"
       y="4150" /><rect
       style="fill:#000000"
       id="rect157"
       width="850"
       height="50"
       x="6550"
       y="4150" /></g><g
     id="layer3"
     style="fill:#bfbfbf"
     inkscape:label="TwoWayPlatform"><rect
       style="fill:#bfbfbf"
       id="rect158"
       width="200"
       height="50"
       x="7100"
       y="4700" /><rect
       style="fill:#bfbfbf"
       id="rect159"
       width="300"
       height="50"
       x="7650"
       y="4300" /><rect
       style="fill:#bfbfbf"
       id="rect160"
       width="200.60648"
       height="50"
       x="6449.3936"
       y="3450" /><rect
       style="fill:#bfbfbf"
       id="rect162"
       width="300"
       height="50"
       x="5900"
       y="3200" /><rect
       style="fill:#bfbfbf"
       id="rect163"
       width="500"
       height="50"
       x="5350"
       y="3200" /><rect
       style="fill:#bfbfbf"
       id="rect164"
       width="400"
       height="50"
       x="4050"
       y="2300" /><rect
       style="fill:#bfbfbf"
       id="rect165"
       width="350"
       height="50"
       x="4200"
       y="1950" /><rect
       style="fill:#bfbfbf"
       id="rect166"
       width="300"
       height="50"
       x="4350"
       y="1400" /><rect
       style="fill:#bfbfbf"
       id="rect167"
       width="448.56458"
       height="50"
       x="4051.4355"
       y="2850" /><rect
       style="fill:#bfbfbf"
       id="rect169"
       width="500"
       height="50"
       x="3100"
       y="1150" /><rect
       style="fill:#bfbfbf"
       id="rect170"
       width="200"
       height="50"
       x="2200"
       y="1150" /><rect
       style="fill:#bfbfbf"
       id="rect171"
       width="150"
       height="50"
       x="2200.8054"
       y="850" /><rect
       style="fill:#bfbfbf"
       id="rect173"
       width="250"
       height="50"
       x="3550"
       y="1950" /><rect
       style="fill:#bfbfbf"
       id="rect174"
       width="694.12866"
       height="50"
       x="3055.8713"
       y="3450" /><rect
       style="fill:#bfbfbf"
       id="rect175"
       width="250"
       height="50"
       x="4100"
       y="3900" /><rect
       style="fill:#bfbfbf"
       id="rect176"
       width="250"
       height="50"
       x="3650"
       y="3200" /><rect
       style="fill:#bfbfbf"
       id="rect177"
       width="250"
       height="50"
       x="3650"
       y="2850" /><rect
       style="fill:#bfbfbf"
       id="rect178"
       width="200"
       height="50"
       x="3400"
       y="3000" /><rect
       style="fill:#bfbfbf"
       id="rect179"
       width="300"
       height="50"
       x="850"
       y="2550" /><rect
       style="fill:#bfbfbf"
       id="rect180"
       width="150"
       height="50"
       x="1000"
       y="2250" /><rect
       style="fill:#bfbfbf"
       id="rect181"
       width="300"
       height="50"
       x="850"
       y="2000" /><rect
       style="fill:#bfbfbf"
       id="rect182"
       width="150"
       height="50"
       x="650"
       y="1750" /><rect
       style="fill:#bfbfbf"
       id="rect183"
       width="250"
       height="50"
       x="550"
       y="1200" /><rect
       style="fill:#bfbfbf"
       id="rect184"
       width="300"
       height="50"
       x="500"
       y="750" /><rect
       style="fill:#bfbfbf"
       id="rect185"
       width="200"
       height="50"
       x="350"
       y="500" /><rect
       style="fill:#bfbfbf"
       id="rect186"
       width="450.84363"
       height="50"
       x="1350"
       y="700" /></g><g
     id="layer4"
     style="fill:#ffcc00"
     inkscape:label="Zipline"><rect
       style="fill:#ffcc00"
       id="rect161"
       width="50"
       height="1450"
       x="6350"
       y="3200" /><rect
       style="fill:#ffcc00"
       id="rect168"
       width="50"
       height="1400"
       x="4600"
       y="2050" /><rect
       style="fill:#ffcc00"
       id="rect172"
       width="50"
       height="2600"
       x="2400"
       y="550" /></g><g
     id="layer5"
     style="fill:#00cc00"
     inkscape:label="Player"><rect
       style="fill:#00cc00"
       id="rect187"
       width="49.888088"
       height="100"
       x="150"
       y="3050" /></g><g
     id="layer6"
     inkscape:label="Backdoor"><rect
       style="fill:#6699ff"
       id="rect188"
       width="48.82494"
       height="100"
       x="2050"
       y="3050" /><rect
       style="fill:#6699ff"
       id="rect189"
       width="50"
       height="100"
       x="750"
       y="1900" /><rect
       style="fill:#6699ff"
       id="rect190"
       width="49.827843"
       height="100"
       x="3000.1721"
       y="1650" /><rect
       style="fill:#6699ff"
       id="rect191"
       width="50"
       height="100"
       x="3650"
       y="3600" /><rect
       style="fill:#6699ff"
       id="rect192"
       width="53.673653"
       height="100"
       x="5498.7734"
       y="3350" /><rect
       style="fill:#6699ff"
       id="rect193"
       width="49.644871"
       height="100"
       x="7200"
       y="4050" /></g><g
     id="layer7"
     style="fill:#003399"
     inkscape:label="Portal"><rect
       style="fill:#003399"
       id="rect194"
       width="48.017902"
       height="100"
       x="4950"
       y="1250" /></g><g
     id="layer8"
     inkscape:label="MeleeStoryEnemy"><rect
       style="fill:#ff00ff"
       id="rect195"
       width="50"
       height="100"
       x="1350"
       y="2700" /><rect
       style="fill:#ff00ff"
       id="rect196"
       width="50"
       height="99.012199"
       x="5850"
       y="4850.9878" /><rect
       style="fill:#ff00ff"
       id="rect197"
       width="50"
       height="100"
       x="3850"
       y="4000" /></g><g
     id="layer9"
     inkscape:label="MeleeEnemy"><rect
       style="fill:#ff0000"
       id="rect198"
       width="48.428959"
       height="100"
       x="501.57104"
       y="3250" /><rect
       style="fill:#ff0000"
       id="rect199"
       width="50"
       height="100"
       x="1450"
       y="3050" /><rect
       style="fill:#ff0000"
       id="rect200"
       width="50"
       height="100"
       x="3000"
       y="3050" /><rect
       style="fill:#ff0000"
       id="rect201"
       width="50"
       height="100"
       x="3800"
       y="3100" /><rect
       style="fill:#ff0000"
       id="rect202"
       width="50"
       height="100"
       x="3900"
       y="3600" /><rect
       style="fill:#ff0000"
       id="rect203"
       width="50"
       height="100"
       x="1399.6793"
       y="1000" /><rect
       style="fill:#ff0000"
       id="rect204"
       width="50"
       height="100"
       x="800"
       y="150" /><rect
       style="fill:#ff0000"
       id="rect205"
       width="50"
       height="100"
       x="150"
       y="900" /><rect
       style="fill:#ff0000"
       id="rect206"
       width="50"
       height="100"
       x="300"
       y="1350" /><rect
       style="fill:#ff0000"
       id="rect207"
       width="50"
       height="100"
       x="1050"
       y="1900" /><rect
       style="fill:#ff0000"
       id="rect208"
       width="50"
       height="100"
       x="2900"
       y="1300" /><rect
       style="fill:#ff0000"
       id="rect209"
       width="50"
       height="98.859573"
       x="3800"
       y="1251.1404" /><rect
       style="fill:#ff0000"
       id="rect210"
       width="50"
       height="100"
       x="2750"
       y="1650" /><rect
       style="fill:#ff0000"
       id="rect211"
       width="50"
       height="100"
       x="3400"
       y="2200" /><rect
       style="fill:#ff0000"
       id="rect212"
       width="50"
       height="96.846405"
       x="4250"
       y="1853.1536" /><rect
       style="fill:#ff0000"
       id="rect213"
       width="50"
       height="100"
       x="4200"
       y="2750" /><rect
       style="fill:#ff0000"
       id="rect214"
       width="49.326794"
       height="100"
       x="4950"
       y="3350" /><rect
       style="fill:#ff0000"
       id="rect215"
       width="50.803017"
       height="100"
       x="5650"
       y="3100" /><rect
       style="fill:#ff0000"
       id="rect216"
       width="50"
       height="100"
       x="6650"
       y="3700" /><rect
       style="fill:#ff0000"
       id="rect217"
       width="50"
       height="100"
       x="6450"
       y="4550" /><rect
       style="fill:#ff0000"
       id="rect218"
       width="50"
       height="100"
       x="7800"
       y="4450" /><rect
       style="fill:#ff0000"
       id="rect219"
       width="50"
       height="100"
       x="6900"
       y="4850" /></g><g
     id="layer10"
     inkscape:label="RangeEnemy"><rect
       style="fill:#d45500"
       id="rect220"
       width="50"
       height="100"
       x="699.16266"
       y="3250" /><rect
       style="fill:#d45500"
       id="rect221"
       width="50"
       height="100"
       x="1700.0328"
       y="3050" /><rect
       style="fill:#d45500"
       id="rect222"
       width="49.260281"
       height="100"
       x="3500"
       y="2900" /><rect
       style="fill:#d45500"
       id="rect223"
       width="50"
       height="100"
       x="2500.9722"
       y="3050" /><rect
       style="fill:#d45500"
       id="rect224"
       width="50"
       height="100"
       x="3800"
       y="2750" /><rect
       style="fill:#d45500"
       id="rect225"
       width="50"
       height="100"
       x="3150"
       y="3350" /><rect
       style="fill:#d45500"
       id="rect226"
       width="50"
       height="100"
       x="3000"
       y="3600" /><rect
       style="fill:#d45500"
       id="rect227"
       width="50"
       height="100"
       x="3200"
       y="1650" /><rect
       style="fill:#d45500"
       id="rect228"
       width="50"
       height="100"
       x="2250"
       y="750" /><rect
       style="fill:#d45500"
       id="rect229"
       width="50.899658"
       height="100"
       x="1650"
       y="800" /><rect
       style="fill:#d45500"
       id="rect230"
       width="50"
       height="98.484917"
       x="1200"
       y="601.51508" /><rect
       style="fill:#d45500"
       id="rect231"
       width="50"
       height="100"
       x="400"
       y="400" /><rect
       style="fill:#d45500"
       id="rect232"
       width="50"
       height="100"
       x="400"
       y="900" /><rect
       style="fill:#d45500"
       id="rect233"
       width="50"
       height="100"
       x="950"
       y="2450" /><rect
       style="fill:#d45500"
       id="rect234"
       width="50"
       height="103.36372"
       x="3250"
       y="1046.6362" /><rect
       style="fill:#d45500"
       id="rect235"
       width="50"
       height="100"
       x="4450"
       y="1300" /><rect
       style="fill:#d45500"
       id="rect236"
       width="50"
       height="100"
       x="4250"
       y="2200" /><rect
       style="fill:#d45500"
       id="rect237"
       width="50.706867"
       height="100"
       x="5249.293"
       y="3350" /><rect
       style="fill:#d45500"
       id="rect238"
       width="51.272648"
       height="100"
       x="6050"
       y="3100" /><rect
       style="fill:#d45500"
       id="rect239"
       width="50"
       height="100"
       x="6500"
       y="3350" /><rect
       style="fill:#d45500"
       id="rect240"
       width="50"
       height="100"
       x="6500"
       y="4850" /><rect
       style="fill:#d45500"
       id="rect241"
       width="50"
       height="100"
       x="7800"
       y="4200" /></g><g
     id="layer11"
     inkscape:label="ShieldEnemy"><rect
       style="fill:#800080"
       id="rect242"
       width="49.096809"
       height="100"
       x="6900.9033"
       y="4050" /><rect
       style="fill:#800080"
       id="rect243"
       width="50"
       height="100"
       x="7500"
       y="4450" /><rect
       style="fill:#800080"
       id="rect244"
       width="50"
       height="100"
       x="4300"
       y="3000" /><rect
       style="fill:#800080"
       id="rect245"
       width="50"
       height="100"
       x="3300"
       y="1250" /><rect
       style="fill:#800080"
       id="rect246"
       width="50"
       height="100"
       x="1500"
       y="600" /><rect
       style="fill:#800080"
       id="rect247"
       width="50"
       height="99.242462"
       x="600"
       y="650.75751" /><rect
       style="fill:#800080"
       id="rect248"
       width="50"
       height="100"
       x="1050"
       y="2700" /><rect
       style="fill:#800080"
       id="rect249"
       width="50"
       height="100"
       x="950"
       y="3250" /><rect
       style="fill:#800080"
       id="rect250"
       width="50"
       height="100"
       x="2750"
       y="3050" /><rect
       style="fill:#800080"
       id="rect251"
       width="50"
       height="100"
       x="3450"
       y="3350" /></g></svg>
